# xmcd
# Track frame offsets:
# 150
# 20336
# 31815
# 44621
# 54091
# 66375
# 81363
# 90141
# 106993
# 117608
# 127267
# 133137
# 147280
# 161464
# 172283
# 180900
# 188508
# 200053
# 215436
# 221551
#
# Disc length: 3206 seconds
# Revision: 0
# Processed by: cddbd v1.5.1PL2 Copyright (c) Steve Scherf et al.
# Submitted via: VisiTrax 2.9.10.228 - For more info visit www.synapsa.com
#
DISCID=250c8414
DTITLE=Ryan.Paddy and Alli. - Thicker Than Water.
DYEAR=2003
DGENRE=Country
TTITLE0=Hare Today Gone Tomorrow.
TTITLE1=How Australian Are You?
TTITLE2=Poor Grandad.
TTITLE3=Remem,ber The Waltzing, Matilda.
TTITLE4=Eat More Beef.
TTITLE5=Said Hanrahan.
TTITLE6=Down Boy.
TTITLE7=Mongrel., The
TTITLE8=Scots Of The Riverina.
TTITLE9=Intuition
TTITLE10=Yobbo.
TTITLE11=Aunt Martha.
TTITLE12=Triple R Lady.
TTITLE13=Travelling Post Office., The
TTITLE14=Runaway Train., The
TTITLE15=Perhaps I'm Sentimental.
TTITLE16=Mum Makes The Rules.
TTITLE17=Grandad's Boots.
TTITLE18=When Grandad Sang.
TTITLE19=This Man.
EXTD=
EXTT0=
EXTT1=
EXTT2=
EXTT3=
EXTT4=
EXTT5=
EXTT6=
EXTT7=
EXTT8=
EXTT9=
EXTT10=
EXTT11=
EXTT12=
EXTT13=
EXTT14=
EXTT15=
EXTT16=
EXTT17=
EXTT18=
EXTT19=
PLAYORDER=
